<?xml version="1.0"?>
<svg xmlns="http://www.w3.org/2000/svg" height="512px" viewBox="0 0 460.86563 460" width="512px"><g><g fill="#3d9ae2"><path d="m460.867188 56.433594c0 30.925781-25.074219 56-56 56-30.929688 0-56-25.074219-56-56 0-30.929688 25.070312-56 56-56 30.925781 0 56 25.070312 56 56zm0 0" data-original="#3D9AE2" class="active-path" data-old_color="#3D9AE2" fill="#FFB229"/><path d="m321.289062 139.769531.046876-.046875c10.65625-10.652344 10.65625-27.925781 0-38.578125l-69.847657-69.847656c-12.496093-12.492187-32.75-12.492187-45.246093 0l-93.847657 93.847656c-10.65625 10.652344-10.65625 27.925781 0 38.578125l.046875.046875c10.652344 10.65625 27.925782 10.65625 38.578125 0l77.847657-77.847656 53.847656 53.847656c10.648437 10.65625 27.921875 10.65625 38.574218 0zm0 0" data-original="#3D9AE2" class="active-path" data-old_color="#3D9AE2" fill="#FFB229"/><path d="m436.867188 208.433594h-88v-48l-48 48v32c0 8.835937 7.160156 16 16 16h120c13.253906 0 24-10.746094 24-24s-10.746094-24-24-24zm0 0" data-original="#3D9AE2" class="active-path" data-old_color="#3D9AE2" fill="#FFB229"/><path d="m7.984375 453.234375.050781.046875c10.65625 10.648438 27.925782 10.648438 38.582032 0l142.402343-142.402344-38.632812-38.628906-142.402344 142.398438c-10.644531 10.65625-10.644531 27.925781 0 38.585937zm0 0" data-original="#3D9AE2" class="active-path" data-old_color="#3D9AE2" fill="#FFB229"/><path d="m230.664062 227.632812c-10.667968-10.671874-27.96875-10.671874-38.636718 0-10.671875 10.671876-10.671875 27.96875 0 38.640626l70.117187 70.078124-85.117187 45.359376c-6.28125 3.589843-10.875 9.527343-12.765625 16.507812-1.894531 6.980469-.925781 14.425781 2.683593 20.695312l1.039063 1.917969c7.519531 13.070313 24.203125 17.578125 37.28125 10.082031l98.480469-52.960937 12.800781-7.351563c8.648437-4.957031 14.496094-13.660156 15.808594-23.542968 1.316406-9.878906-2.046875-19.8125-9.097657-26.859375zm0 0" data-original="#3D9AE2" class="active-path" data-old_color="#3D9AE2" fill="#FFB229"/></g></g> </svg>
